<?xml version="1.0" standalone="no"?><!DOCTYPE svg PUBLIC "-//W3C//DTD SVG 1.1//EN"
        "http://www.w3.org/Graphics/SVG/1.1/DTD/svg11.dtd">
<svg t="1607858056796" class="icon" viewBox="0 0 1024 1024" version="1.1" xmlns="http://www.w3.org/2000/svg" p-id="3098"
     xmlns:xlink="http://www.w3.org/1999/xlink" width="200" height="200">
    <defs>
        <style type="text/css"></style>
    </defs>
    <path d="M873.001311 67.918991a86.891923 86.891923 0 0 1 26.985069 33.191635l65.034017-65.034017a20.508653 20.508653 0 0 0 0-28.874024A20.508653 20.508653 0 0 0 934.79712 6.123182l-61.795809 61.795809a86.082371 86.082371 0 0 0-53.970139-18.079996H139.277274A86.891923 86.891923 0 0 0 52.38535 135.651515v801.456562a86.891923 86.891923 0 0 0 86.891924 86.891923h681.103151a86.891923 86.891923 0 0 0 86.891924-86.891923V135.651515a86.352222 86.352222 0 0 0-7.82567-35.620291l-157.322955 158.672208a21.318205 21.318205 0 0 1-29.953427-29.953427zM681.137467 912.281813H199.184128a25.635816 25.635816 0 0 1 0-51.001782H681.137467a25.635816 25.635816 0 0 1 0 51.001782z m3.238209-263.913979H181.913683a26.985069 26.985069 0 1 1 0-53.970139h502.461993a26.985069 26.985069 0 1 1 0 53.970139z m26.985069-314.106208a26.985069 26.985069 0 0 1-26.985069 26.985069H181.913683a26.985069 26.985069 0 1 1 0-53.970138h502.461993a26.985069 26.985069 0 0 1 26.715218 25.635816z"
          p-id="3099" fill="#e6e6e6"></path>
</svg>